<?xml version="1.0" encoding="utf-8"?>
<svg xmlns="http://www.w3.org/2000/svg" viewBox="0 0 1140 360" enable-background="new 0 0 1140 360">
  <svg x="326" y="80" width="488.84" height="76.6">
    <defs>
      <style>.cls-1{fill:#ea4335;}.cls-2{fill:#4285f4;}.cls-3{fill:#34a853;}.cls-4{fill:#fbbc05;}.cls-5{fill:#ffffff;}</style>
    </defs>
    <path class="cls-1" d="M57.63 20.12l2.9.05 7.88-7.88.38-3.34a35.4 35.4 0 0 0-57.71 17.21c.86-.6 2.7-.15 2.7-.15l15.75-2.59s.81-1.34 1.22-1.26a19.64 19.64 0 0 1 26.89-2z" />
    <path class="cls-2" d="M79.48 26.18A35.48 35.48 0 0 0 68.79 8.95L57.63 20.11a19.65 19.65 0 0 1 7.34 15.31v2a9.84 9.84 0 1 1 0 19.68H45.28l-2 2v11.81l2 2h19.68a25.58 25.58 0 0 0 14.52-46.65z" />
    <path class="cls-3" d="M25.59 72.83h19.67V57.08H25.59a9.77 9.77 0 0 1-4.05-.88l-2.84.87-7.88 7.88-.68 2.61a25.46 25.46 0 0 0 15.45 5.27z" />
    <path class="cls-4" d="M25.59 21.65a25.58 25.58 0 0 0-15.45 46L21.55 56.2a9.84 9.84 0 1 1 13-13l11.41-11.41a25.56 25.56 0 0 0-20.37-10.14z" />
    <path class="cls-5" d="M143.14 61.84a25.16 25.16 0 0 1-18.24-7.5 25 25 0 0 1 0-36 25.17 25.17 0 0 1 18.24-7.54 24.42 24.42 0 0 1 17.49 7l-4.92 4.92a17.72 17.72 0 0 0-12.57-5 17.5 17.5 0 0 0-13 5.42 18.87 18.87 0 0 0 0 26.27 18.53 18.53 0 0 0 25.86.31q3-3 3.8-8.78h-16.66v-7h23.47a22.43 22.43 0 0 1 .37 4.36q0 10.27-6 16.31-6.92 7.23-17.84 7.23zm54.53-4.7a16.92 16.92 0 0 1-23.41 0 16.76 16.76 0 0 1 0-23.47 16.92 16.92 0 0 1 23.41 0 16.76 16.76 0 0 1 0 23.47zm-18.27-4.58a9 9 0 0 0 13.07 0 10.73 10.73 0 0 0 0-14.29 9.1 9.1 0 0 0-13.13 0 10.73 10.73 0 0 0 0 14.29zm54.22 4.61a16.92 16.92 0 0 1-23.41 0 16.76 16.76 0 0 1 0-23.47 16.92 16.92 0 0 1 23.41 0 16.76 16.76 0 0 1 0 23.47zm-18.24-4.61a9 9 0 0 0 13.07 0 10.73 10.73 0 0 0 0-14.29 9.1 9.1 0 0 0-13.13 0 10.73 10.73 0 0 0 0 14.29zm41.89 24a14.48 14.48 0 0 1-9.21-2.93 16.94 16.94 0 0 1-5.35-6.79l6.29-2.61a10.61 10.61 0 0 0 3.11 4.11 7.86 7.86 0 0 0 5.17 1.74 8.4 8.4 0 0 0 6.44-2.49q2.33-2.49 2.33-7.16v-2.32h-.25q-3.05 3.74-8.65 3.74a15 15 0 0 1-11-4.79 15.88 15.88 0 0 1-4.73-11.58 16.06 16.06 0 0 1 4.72-11.68 15 15 0 0 1 11-4.82 11.88 11.88 0 0 1 5.07 1.06 10.22 10.22 0 0 1 3.58 2.61h.25v-2.68h6.85v29.5q0 8.59-4.39 12.86a15.46 15.46 0 0 1-11.23 4.23zm.5-21.23a8 8 0 0 0 6.26-2.77 10.24 10.24 0 0 0 2.52-7.07 10.44 10.44 0 0 0-2.52-7.16 8 8 0 0 0-6.26-2.86 8.54 8.54 0 0 0-6.47 2.86 10.07 10.07 0 0 0-2.68 7.16 9.88 9.88 0 0 0 2.68 7.07 8.58 8.58 0 0 0 6.47 2.81zm27.37-42.77v48.31h-7.22V12.56zm19.8 49.3a15.69 15.69 0 0 1-11.64-4.73 16 16 0 0 1-4.67-11.7 16.19 16.19 0 0 1 4.51-11.87 14.8 14.8 0 0 1 11-4.61 14 14 0 0 1 5.54 1.09 13 13 0 0 1 4.23 2.8 19.28 19.28 0 0 1 2.68 3.33 19.75 19.75 0 0 1 1.55 3.26l.75 1.87-22 9.09a8.41 8.41 0 0 0 8 5 9.43 9.43 0 0 0 8.09-4.54l5.6 3.74a18.21 18.21 0 0 1-5.29 5 15 15 0 0 1-8.4 2.25zm-9.2-16.95l14.69-6.1a5.09 5.09 0 0 0-2.3-2.52 7.5 7.5 0 0 0-3.8-1 8.55 8.55 0 0 0-5.94 2.61 8.76 8.76 0 0 0-2.65 7.01zM356.81 61.84a22.76 22.76 0 0 1-23.16-23.28 22.76 22.76 0 0 1 23.16-23.28 20.61 20.61 0 0 1 16.33 7.28l-4 3.86a15 15 0 0 0-12.39-5.66 16.88 16.88 0 0 0-12.29 4.92q-5 4.92-5 12.88t5 12.89a16.88 16.88 0 0 0 12.29 4.92 17.57 17.57 0 0 0 13.69-6.47l4 4a21.71 21.71 0 0 1-7.66 5.82 23.43 23.43 0 0 1-9.97 2.12zM385.32 60.84h-5.73V16.27h5.73zM394.66 33.98a16 16 0 0 1 22.53 0 16.17 16.17 0 0 1 4.42 11.58 16.16 16.16 0 0 1-4.42 11.61 16 16 0 0 1-22.53 0 16.16 16.16 0 0 1-4.42-11.61 16.16 16.16 0 0 1 4.42-11.58zm4.26 19.58a9.63 9.63 0 0 0 14 0 10.94 10.94 0 0 0 3-8 11 11 0 0 0-3-8 9.63 9.63 0 0 0-14 0 10.94 10.94 0 0 0-3 8 10.94 10.94 0 0 0 3 8zM453.3 60.84h-5.48v-4.23h-.25a10.63 10.63 0 0 1-4 3.7 11.27 11.27 0 0 1-5.66 1.53q-5.73 0-8.68-3.49t-3-9.34V30.34h5.73v17.74q0 8.53 7.53 8.53a7 7 0 0 0 5.79-2.86 10.41 10.41 0 0 0 2.24-6.6V30.34h5.73zM472.72 61.84a13.42 13.42 0 0 1-10.21-4.67 16.46 16.46 0 0 1-4.3-11.61 16.45 16.45 0 0 1 4.29-11.58 13.42 13.42 0 0 1 10.21-4.67 13 13 0 0 1 6.26 1.49 10.58 10.58 0 0 1 4.17 3.76h.25l-.25-4.22V16.27h5.73v44.57h-5.48v-4.23h-.25a10.58 10.58 0 0 1-4.14 3.74 13 13 0 0 1-6.28 1.49zm.93-5.23a9.12 9.12 0 0 0 6.88-3 11.19 11.19 0 0 0 2.83-8 11.2 11.2 0 0 0-2.83-8 9.34 9.34 0 0 0-13.73 0 11.15 11.15 0 0 0-2.86 8 11.14 11.14 0 0 0 2.86 8 9.11 9.11 0 0 0 6.85 3z" />
  </svg>
</svg>
